<svg width="35" height="34" viewBox="0 0 35 34" fill="none" xmlns="http://www.w3.org/2000/svg">
<path opacity="0.4" d="M28.4183 9.67084L20.2685 3.96882C18.0471 2.41243 14.6372 2.49733 12.5007 4.15275L5.41211 9.68498C3.99722 10.7886 2.87946 13.0524 2.87946 14.8352V24.598C2.87946 28.2059 5.80828 31.1489 9.41626 31.1489H24.6688C28.2768 31.1489 31.2056 28.2201 31.2056 24.6121V15.0191C31.2056 13.109 29.9747 10.7603 28.4183 9.67084Z" fill="#292D32"/>
<path d="M17.0426 26.5505C16.4624 26.5505 15.9814 26.0694 15.9814 25.4893V21.2446C15.9814 20.6645 16.4624 20.1835 17.0426 20.1835C17.6227 20.1835 18.1037 20.6645 18.1037 21.2446V25.4893C18.1037 26.0694 17.6227 26.5505 17.0426 26.5505Z" fill="white"/>
</svg>
