<svg width="34" height="34" viewBox="0 0 34 34" fill="none" xmlns="http://www.w3.org/2000/svg">
<path opacity="0.4" d="M22.9284 2.85107H11.0716C5.92139 2.85107 2.85107 5.92139 2.85107 11.0716V22.9143C2.85107 28.0786 5.92139 31.1489 11.0716 31.1489H22.9143C28.0645 31.1489 31.1348 28.0786 31.1348 22.9284V11.0716C31.1489 5.92139 28.0786 2.85107 22.9284 2.85107Z" fill="#292D32"/>
<path d="M24.0745 11.6941H9.92555C9.34544 11.6941 8.86438 11.2131 8.86438 10.6329C8.86438 10.0528 9.34544 9.57178 9.92555 9.57178H24.0745C24.6546 9.57178 25.1357 10.0528 25.1357 10.6329C25.1357 11.2131 24.6546 11.6941 24.0745 11.6941Z" fill="white"/>
<path d="M24.0745 18.0612H9.92555C9.34544 18.0612 8.86438 17.5801 8.86438 17C8.86438 16.4199 9.34544 15.9388 9.92555 15.9388H24.0745C24.6546 15.9388 25.1357 16.4199 25.1357 17C25.1357 17.5801 24.6546 18.0612 24.0745 18.0612Z" fill="white"/>
<path d="M24.0745 24.4281H9.92555C9.34544 24.4281 8.86438 23.9471 8.86438 23.367C8.86438 22.7868 9.34544 22.3058 9.92555 22.3058H24.0745C24.6546 22.3058 25.1357 22.7868 25.1357 23.367C25.1357 23.9471 24.6546 24.4281 24.0745 24.4281Z" fill="white"/>
</svg>
