<svg width="35" height="34" viewBox="0 0 35 34" fill="none" xmlns="http://www.w3.org/2000/svg">
<path opacity="0.4" d="M17.9574 2.85107C14.2504 2.85107 11.2367 5.8648 11.2367 9.57182C11.2367 13.2081 14.0806 16.1511 17.7876 16.2784C17.9008 16.2643 18.014 16.2643 18.0989 16.2784C18.1272 16.2784 18.1414 16.2784 18.1697 16.2784C18.1838 16.2784 18.1838 16.2784 18.198 16.2784C21.8201 16.1511 24.664 13.2081 24.6782 9.57182C24.6782 5.8648 21.6645 2.85107 17.9574 2.85107Z" fill="#292D32"/>
<path d="M25.1451 20.042C21.1975 17.4103 14.7598 17.4103 10.7839 20.042C8.98701 21.2447 7.99658 22.8718 7.99658 24.6121C7.99658 26.3524 8.98701 27.9654 10.7698 29.1539C12.7506 30.4839 15.354 31.1489 17.9574 31.1489C20.5608 31.1489 23.1642 30.4839 25.1451 29.1539C26.9278 27.9513 27.9183 26.3383 27.9183 24.5838C27.9041 22.8435 26.9278 21.2305 25.1451 20.042Z" fill="#797979"/>
</svg>
